<svg clip-rule="evenodd" fill-rule="evenodd" stroke-linejoin="round" stroke-miterlimit="2" viewBox="0 0 70 29" xmlns="http://www.w3.org/2000/svg"><path d="m70 14.5c0 8.003-6.497 14.5-14.5 14.5h-41c-8.003 0-14.5-6.497-14.5-14.5s6.497-14.5 14.5-14.5h41c8.003 0 14.5 6.497 14.5 14.5z" fill="#007aff"/><g fill="#fff" fill-rule="nonzero"><path d="m.085-0h.467v-.122h-.319v-.178h.301v-.113h-.301v-.17h.319v-.122h-.467z" transform="matrix(14 0 0 14 21.1877 19.99999)"/><path d="m.263.009c.025 0 .048-.004.069-.011.021-.008.039-.018.055-.032.015-.014.028-.03.037-.049h.009v.083h.142v-.743h-.142v.291h-.009c-.009-.019-.022-.036-.037-.05-.016-.014-.035-.025-.056-.033-.021-.007-.043-.011-.068-.011-.045 0-.084.011-.117.033s-.058.054-.075.095c-.018.042-.026.091-.026.149v.001c0 .057.009.106.026.148.018.041.043.073.076.095.033.022.071.034.116.034zm.049-.119c-.026 0-.047-.006-.065-.019-.019-.012-.033-.031-.043-.054-.009-.024-.014-.052-.014-.085v-.001c0-.033.005-.061.014-.085.01-.024.024-.042.043-.055.018-.013.04-.019.065-.019s.046.006.065.019c.018.013.032.031.042.055s.015.052.015.085v.001c0 .033-.005.061-.015.085-.01.023-.024.042-.042.054-.018.013-.04.019-.065.019z" transform="matrix(14 0 0 14 29.8992 19.99999)"/><path d="m.072-0h.143v-.538h-.143zm.072-.62c.022 0 .041-.008.057-.023.015-.016.023-.034.023-.056s-.008-.041-.023-.056c-.016-.016-.035-.024-.057-.024s-.041.008-.057.024c-.016.015-.024.034-.024.056s.008.04.024.056c.016.015.035.023.057.023z" transform="matrix(14 0 0 14 38.6311 19.99999)"/><path d="m.294.002c.014 0 .027-.001.04-.002.012-.001.023-.003.032-.004v-.106c-.007.001-.014.001-.02.001-.006.001-.013.001-.022.001-.024 0-.042-.006-.053-.017s-.016-.029-.016-.053v-.252h.111v-.108h-.111v-.128h-.144v.128h-.083v.108h.083v.285c0 .052.014.09.043.113.028.023.075.034.14.034z" transform="matrix(14 0 0 14 42.4959 19.99999)"/></g></svg>