<?xml version="1.0" encoding="UTF-8"?>
<svg width="335px" height="50px" viewBox="0 0 335 50" version="1.1" xmlns="http://www.w3.org/2000/svg" xmlns:xlink="http://www.w3.org/1999/xlink">
    <title>NativeLargeActionButton</title>
    <g id="Page-1" stroke="none" stroke-width="1" fill="none" fill-rule="evenodd">
        <g id="NativeLargeActionButton">
            <path d="M19.229139,-7.76880231e-16 L315.770861,7.76880231e-16 C322.457252,-4.51389787e-16 324.881898,0.696192084 327.326343,2.00349528 C329.770787,3.31079847 331.689202,5.22921278 332.996505,7.67365722 C334.303808,10.1181017 335,12.5427485 335,19.229139 L335,30.770861 C335,37.4572515 334.303808,39.8818983 332.996505,42.3263428 C331.689202,44.7707872 329.770787,46.6892015 327.326343,47.9965047 C324.881898,49.3038079 322.457252,50 315.770861,50 L19.229139,50 C12.5427485,50 10.1181017,49.3038079 7.67365722,47.9965047 C5.22921278,46.6892015 3.31079847,44.7707872 2.00349528,42.3263428 C0.696192084,39.8818983 1.88161677e-15,37.4572515 -3.23842257e-15,30.770861 L5.17920154e-16,19.229139 C-3.00926524e-16,12.5427485 0.696192084,10.1181017 2.00349528,7.67365722 C3.31079847,5.22921278 5.22921278,3.31079847 7.67365722,2.00349528 C10.1181017,0.696192084 12.5427485,4.51389787e-16 19.229139,-7.76880231e-16 Z" id="Background" fill="#007AFF"></path>
            <g id="Content" transform="translate(102.519878, 14.000000)" fill="#FFFFFF" fill-rule="nonzero">
                <path d="M32.9745138,16 L34.0038107,12.9038086 L38.4115255,12.9038086 L39.4242208,16 L41.7235372,16 L37.4652365,4.02197266 L35.0580099,4.02197266 L30.8080099,16 L32.9745138,16 Z M37.9134787,11.2519531 L34.5018576,11.2519531 L36.1454122,6.27148438 L36.2865255,6.27148438 L37.9134787,11.2519531 Z M45.9473732,16.1494141 C47.2090919,16.1494141 48.2549904,15.5600586 48.7696388,14.5639648 L48.9107521,14.5639648 L48.9107521,16 L50.9029396,16 L50.9029396,3.41601562 L48.8443458,3.41601562 L48.8443458,8.37158203 L48.7032326,8.37158203 C48.2217872,7.37548828 47.1924904,6.77783203 45.9473732,6.77783203 C43.6563576,6.77783203 42.2120216,8.58740234 42.2120216,11.4594727 C42.2120216,14.3398438 43.6480568,16.1494141 45.9473732,16.1494141 Z M46.5865333,14.4394531 C45.1754005,14.4394531 44.3204201,13.3271484 44.3204201,11.4677734 C44.3204201,9.61669922 45.1837013,8.49609375 46.5865333,8.49609375 C47.9976662,8.49609375 48.8692482,9.63330078 48.8692482,11.4677734 C48.8692482,13.3105469 48.0059669,14.4394531 46.5865333,14.4394531 Z M56.3801935,16.1494141 C57.6419122,16.1494141 58.6878107,15.5600586 59.2024591,14.5639648 L59.3435724,14.5639648 L59.3435724,16 L61.3357599,16 L61.3357599,3.41601562 L59.2771662,3.41601562 L59.2771662,8.37158203 L59.1360529,8.37158203 C58.6546076,7.37548828 57.6253107,6.77783203 56.3801935,6.77783203 C54.0891779,6.77783203 52.6448419,8.58740234 52.6448419,11.4594727 C52.6448419,14.3398438 54.0808771,16.1494141 56.3801935,16.1494141 Z M57.0193537,14.4394531 C55.6082208,14.4394531 54.7532404,13.3271484 54.7532404,11.4677734 C54.7532404,9.61669922 55.6165216,8.49609375 57.0193537,8.49609375 C58.4304865,8.49609375 59.3020685,9.63330078 59.3020685,11.4677734 C59.3020685,13.3105469 58.4387872,14.4394531 57.0193537,14.4394531 Z M69.1442716,16 L70.1735685,12.9038086 L74.5812833,12.9038086 L75.5939787,16 L77.8932951,16 L73.6349943,4.02197266 L71.2277677,4.02197266 L66.9777677,16 L69.1442716,16 Z M74.0832365,11.2519531 L70.6716154,11.2519531 L72.3151701,6.27148438 L72.4562833,6.27148438 L74.0832365,11.2519531 Z M82.723088,16.1826172 C85.0224044,16.1826172 86.4501388,14.9042969 86.6742599,13.0283203 L84.7152755,13.0283203 C84.4994552,13.9829102 83.785588,14.4892578 82.7147872,14.4892578 C81.3119552,14.4892578 80.4652755,13.3686523 80.4652755,11.4428711 C80.4652755,9.55029297 81.3036544,8.43798828 82.7147872,8.43798828 C83.8436935,8.43798828 84.5243576,9.07714844 84.7152755,9.95703125 L86.6742599,9.95703125 C86.4584396,8.08105469 85.0473068,6.75292969 82.7147872,6.75292969 C79.9838302,6.75292969 78.3817794,8.50439453 78.3817794,11.4428711 C78.3817794,14.4145508 79.992131,16.1826172 82.723088,16.1826172 Z M91.9190919,16.0415039 C92.3175294,16.0415039 92.6993654,16.0083008 92.9981935,15.9501953 L92.9981935,14.3730469 C92.7491701,14.3979492 92.5914552,14.4145508 92.3009279,14.4145508 C91.4376466,14.4145508 91.0558107,14.0078125 91.0558107,13.1030273 L91.0558107,8.58740234 L92.9981935,8.58740234 L92.9981935,6.98535156 L91.0558107,6.98535156 L91.0558107,4.70263672 L89.0055177,4.70263672 L89.0055177,6.98535156 L87.5694826,6.98535156 L87.5694826,8.58740234 L89.0055177,8.58740234 L89.0055177,13.5927734 C89.0055177,15.3442383 89.8355958,16.0415039 91.9190919,16.0415039 Z M95.6946857,5.40820312 C96.3753497,5.40820312 96.9315021,4.86865234 96.9315021,4.18798828 C96.9315021,3.515625 96.3753497,2.96777344 95.6946857,2.96777344 C95.0223224,2.96777344 94.4661701,3.515625 94.4661701,4.18798828 C94.4661701,4.86865234 95.0223224,5.40820312 95.6946857,5.40820312 Z M96.7239826,16 L96.7239826,6.92724609 L94.6736896,6.92724609 L94.6736896,16 L96.7239826,16 Z M102.782291,16.1826172 C105.496647,16.1826172 107.148502,14.40625 107.148502,11.4594727 C107.148502,8.52929688 105.488346,6.75292969 102.782291,6.75292969 C100.084537,6.75292969 98.4160802,8.53759766 98.4160802,11.4594727 C98.4160802,14.40625 100.059635,16.1826172 102.782291,16.1826172 Z M102.782291,14.4975586 C101.346256,14.4975586 100.524479,13.3852539 100.524479,11.4677734 C100.524479,9.55029297 101.346256,8.43798828 102.782291,8.43798828 C104.210026,8.43798828 105.031803,9.55029297 105.031803,11.4677734 C105.031803,13.3852539 104.218326,14.4975586 102.782291,14.4975586 Z M110.874291,16 L110.874291,10.7124023 C110.874291,9.35107422 111.646264,8.49609375 112.874779,8.49609375 C114.128197,8.49609375 114.709252,9.20166016 114.709252,10.612793 L114.709252,16 L116.767846,16 L116.767846,10.1313477 C116.767846,7.97314453 115.663842,6.75292969 113.638451,6.75292969 C112.285424,6.75292969 111.372338,7.3671875 110.940697,8.37988281 L110.799584,8.37988281 L110.799584,6.92724609 L108.815697,6.92724609 L108.815697,16 L110.874291,16 Z" id="AddAction"></path>
                <path d="M10.204,19.6894531 C14.9603477,19.6894531 18.8783164,15.7714844 18.8783164,11.0151367 C18.8783164,6.25878906 14.9520469,2.33251953 10.1956992,2.33251953 C5.43935156,2.33251953 1.52968359,6.25878906 1.52968359,11.0151367 C1.52968359,15.7714844 5.44765234,19.6894531 10.204,19.6894531 Z M10.1873984,15.1240234 C9.64784766,15.1240234 9.29921484,14.7338867 9.29921484,14.1860352 L9.29921484,11.9116211 L6.89198828,11.9116211 C6.34413672,11.9116211 5.94569922,11.5629883 5.94569922,11.0234375 C5.94569922,10.4755859 6.33583594,10.1269531 6.89198828,10.1269531 L9.29921484,10.1269531 L9.29921484,7.73632812 C9.29921484,7.18847656 9.64784766,6.79833984 10.1873984,6.79833984 C10.7269492,6.79833984 11.0921836,7.18017578 11.0921836,7.73632812 L11.0921836,10.1269531 L13.5077109,10.1269531 C14.0721641,10.1269531 14.4456992,10.4755859 14.4456992,11.0234375 C14.4456992,11.5629883 14.0638633,11.9116211 13.5077109,11.9116211 L11.0921836,11.9116211 L11.0921836,14.1860352 C11.0921836,14.7421875 10.7269492,15.1240234 10.1873984,15.1240234 Z" id="icon"></path>
            </g>
        </g>
    </g>
</svg>