<?xml version="1.0" encoding="UTF-8"?>
<svg width="82px" height="83px" viewBox="0 0 82 83" version="1.1" xmlns="http://www.w3.org/2000/svg" xmlns:xlink="http://www.w3.org/1999/xlink">
    <title>NativeAvatarView</title>
    <g id="Page-1" stroke="none" stroke-width="1" fill="none" fill-rule="evenodd">
        <g id="NativeAvatarView" transform="translate(0.165402, 0.976562)">
            <path d="M40.8203125,81.6796875 C63.203125,81.6796875 81.640625,63.2421875 81.640625,40.859375 C81.640625,18.4765625 63.1640625,0 40.78125,0 C18.3984375,0 0,18.4765625 0,40.859375 C0,63.2421875 18.4375,81.6796875 40.8203125,81.6796875 Z M40.8203125,46.9923589 C33.046875,46.9140625 27.0703125,40.390625 27.0703125,31.9140625 C26.9921875,23.90625 33.125,17.109375 40.8203125,17.109375 C48.515625,17.109375 54.5703125,23.90625 54.5703125,31.9140625 C54.5703125,40.390625 48.59375,47.03125 40.8203125,46.9923589 Z M40.8203125,74.2578125 C32.265625,74.2578125 22.8515625,70.703125 17.03125,64.3359375 L17.109375,63.8671875 C21.0546875,58.7109375 29.2578125,53.828125 40.8203125,53.828125 C52.3828125,53.828125 60.5859375,58.7109375 64.53125,63.8671875 L64.609375,64.3359375 C58.7890625,70.703125 49.375,74.2578125 40.8203125,74.2578125 Z" id="Placholder" fill="#D1D1D6" fill-rule="nonzero"></path>
            <g id="Edit" transform="translate(52.834598, 53.023438)">
                <rect id="Grade" fill="#FFFFFF" x="6" y="6" width="17" height="17"></rect>
                <path d="M14.3457143,26.796875 C21.060558,26.796875 26.591808,21.265625 26.591808,14.5507812 C26.591808,7.8359375 21.0488393,2.29296875 14.3339955,2.29296875 C7.61915179,2.29296875 2.09962054,7.8359375 2.09962054,14.5507812 C2.09962054,21.265625 7.63087054,26.796875 14.3457143,26.796875 Z M14.3222768,20.3515625 C13.560558,20.3515625 13.0683705,19.8007812 13.0683705,19.0273438 L13.0683705,15.8164062 L9.66993304,15.8164062 C8.89649554,15.8164062 8.33399554,15.3242188 8.33399554,14.5625 C8.33399554,13.7890625 8.88477679,13.296875 9.66993304,13.296875 L13.0683705,13.296875 L13.0683705,9.921875 C13.0683705,9.1484375 13.560558,8.59765625 14.3222768,8.59765625 C15.0839955,8.59765625 15.5996205,9.13671875 15.5996205,9.921875 L15.5996205,13.296875 L19.0097768,13.296875 C19.8066518,13.296875 20.3339955,13.7890625 20.3339955,14.5625 C20.3339955,15.3242188 19.794933,15.8164062 19.0097768,15.8164062 L15.5996205,15.8164062 L15.5996205,19.0273438 C15.5996205,19.8125 15.0839955,20.3515625 14.3222768,20.3515625 Z" id="Icon" fill="#007CFF" fill-rule="nonzero"></path>
            </g>
        </g>
    </g>
</svg>