<?xml version="1.0" encoding="UTF-8"?>
<svg width="70px" height="29px" viewBox="0 0 70 29" version="1.1" xmlns="http://www.w3.org/2000/svg" xmlns:xlink="http://www.w3.org/1999/xlink">
    <title>NativeSmallActionButton</title>
    <defs>
        <rect id="path-1" x="0" y="0" width="70" height="29" rx="14.5"></rect>
    </defs>
    <g id="Page-1" stroke="none" stroke-width="1" fill="none" fill-rule="evenodd">
        <g id="NativeSmallActionButton">
            <mask id="mask-2" fill="white">
                <use xlink:href="#path-1"></use>
            </mask>
            <use id="Background" fill="#007AFF" xlink:href="#path-1"></use>
            <g id="Content" mask="url(#mask-2)" fill="#FFFFFF" fill-rule="nonzero">
                <g transform="translate(19.000000, 7.000000)" id="EDIT">
                    <path d="M7.73144531,13 L7.73144531,11.2978516 L3.26074219,11.2978516 L3.26074219,8.80273438 L7.47851562,8.80273438 L7.47851562,7.21679688 L3.26074219,7.21679688 L3.26074219,4.83789062 L7.73144531,4.83789062 L7.73144531,3.13574219 L1.19628906,3.13574219 L1.19628906,13 L7.73144531,13 Z M13.7098809,13 C16.6630059,13 18.3378105,11.1953125 18.3378105,8.00292969 C18.3378105,4.90625 16.642498,3.13574219 13.7098809,3.13574219 L9.82706836,3.13574219 L9.82706836,13 L13.7098809,13 Z M13.3817559,11.2978516 L11.8915215,11.2978516 L11.8915215,4.83789062 L13.3817559,4.83789062 C15.1727715,4.83789062 16.2323418,6 16.2323418,8.03710938 C16.2323418,10.1494141 15.2069512,11.2978516 13.3817559,11.2978516 Z M22.2791367,13 L22.2791367,3.13574219 L20.2146836,3.13574219 L20.2146836,13 L22.2791367,13 Z M29.050541,13 L29.050541,4.83789062 L32.010502,4.83789062 L32.010502,3.13574219 L24.026127,3.13574219 L24.026127,4.83789062 L26.9860879,4.83789062 L26.9860879,13 L29.050541,13 Z"></path>
                </g>
            </g>
        </g>
    </g>
</svg>