<?xml version="1.0" encoding="UTF-8"?>
<svg width="335px" height="50px" viewBox="0 0 335 50" version="1.1" xmlns="http://www.w3.org/2000/svg" xmlns:xlink="http://www.w3.org/1999/xlink">
    <title>NativeLargeActionButton</title>
    <g id="Controls" stroke="none" stroke-width="1" fill="none" fill-rule="evenodd">
        <g id="NativeLargeActionButton">
            <path d="M19.229139,-7.76880231e-16 L315.770861,7.76880231e-16 C322.457252,-4.51389787e-16 324.881898,0.696192084 327.326343,2.00349528 C329.770787,3.31079847 331.689202,5.22921278 332.996505,7.67365722 C334.303808,10.1181017 335,12.5427485 335,19.229139 L335,30.770861 C335,37.4572515 334.303808,39.8818983 332.996505,42.3263428 C331.689202,44.7707872 329.770787,46.6892015 327.326343,47.9965047 C324.881898,49.3038079 322.457252,50 315.770861,50 L19.229139,50 C12.5427485,50 10.1181017,49.3038079 7.67365722,47.9965047 C5.22921278,46.6892015 3.31079847,44.7707872 2.00349528,42.3263428 C0.696192084,39.8818983 1.88161677e-15,37.4572515 -3.23842257e-15,30.770861 L5.17920154e-16,19.229139 C-3.00926524e-16,12.5427485 0.696192084,10.1181017 2.00349528,7.67365722 C3.31079847,5.22921278 5.22921278,3.31079847 7.67365722,2.00349528 C10.1181017,0.696192084 12.5427485,4.51389787e-16 19.229139,-7.76880231e-16 Z" id="Background" fill="#007AFF"></path>
            <g id="Content" transform="translate(102.519878, 15.000000)" fill="#FFFFFF" fill-rule="nonzero">
                <path d="M39.3329122,15 L39.3329122,13.1655273 L33.8377951,13.1655273 L33.8377951,3.02197266 L31.6961935,3.02197266 L31.6961935,15 L39.3329122,15 Z M43.5152443,15.1494141 C44.702256,15.1494141 45.6983497,14.6347656 46.2046974,13.7548828 L46.3458107,13.7548828 L46.3458107,15 L48.3296974,15 L48.3296974,8.79931641 C48.3296974,6.88183594 47.018174,5.75292969 44.6856544,5.75292969 C42.5274513,5.75292969 41.0250099,6.765625 40.8589943,8.35107422 L42.8013771,8.35107422 C42.9922951,7.72851562 43.639756,7.38818359 44.5860451,7.38818359 C45.6983497,7.38818359 46.296006,7.89453125 46.296006,8.79931641 L46.296006,9.57958984 L43.9551857,9.72070312 C41.7471779,9.84521484 40.5103615,10.7998047 40.5103615,12.4267578 C40.5103615,14.0869141 41.7637794,15.1494141 43.5152443,15.1494141 Z M44.1212013,13.5639648 C43.2081154,13.5639648 42.5523537,13.1074219 42.5523537,12.3271484 C42.5523537,11.5717773 43.0919044,11.1484375 44.245713,11.0737305 L46.296006,10.9326172 L46.296006,11.6713867 C46.296006,12.7504883 45.3663185,13.5639648 44.1212013,13.5639648 Z M52.453924,15 L52.453924,9.72900391 C52.453924,8.45068359 53.3836115,7.62060547 54.7200372,7.62060547 C55.0686701,7.62060547 55.6165216,7.67871094 55.7742365,7.73681641 L55.7742365,5.86083984 C55.5833185,5.81103516 55.2180841,5.77783203 54.919256,5.77783203 C53.7488458,5.77783203 52.7693537,6.44189453 52.5203302,7.33837891 L52.3792169,7.33837891 L52.3792169,5.92724609 L50.3953302,5.92724609 L50.3953302,15 L52.453924,15 Z M60.7285412,18.453125 C63.3764904,18.453125 65.0532482,17.1333008 65.0532482,15.0498047 L65.0532482,5.92724609 L63.0693615,5.92724609 L63.0693615,7.37988281 L62.9282482,7.37988281 C62.4302013,6.39208984 61.3510997,5.77783203 60.1142833,5.77783203 C57.7983654,5.77783203 56.3623302,7.58740234 56.3623302,10.3681641 C56.3623302,13.0908203 57.7900646,14.8671875 60.0810802,14.8671875 C61.342799,14.8671875 62.3305919,14.3359375 62.8535412,13.3564453 L62.9946544,13.3564453 L62.9946544,15.0830078 C62.9946544,16.2368164 62.1728771,16.9174805 60.7617443,16.9174805 C59.632838,16.9174805 58.9023693,16.5107422 58.7695568,15.871582 L56.7026622,15.871582 C56.8686779,17.4321289 58.3960216,18.453125 60.7285412,18.453125 Z M60.7285412,13.2319336 C59.292506,13.2319336 58.4790294,12.1196289 58.4790294,10.3598633 C58.4790294,8.60839844 59.292506,7.49609375 60.7285412,7.49609375 C62.1562755,7.49609375 63.0278576,8.60839844 63.0278576,10.3681641 C63.0278576,12.1196289 62.1645763,13.2319336 60.7285412,13.2319336 Z M71.0036466,15.1826172 C73.1452482,15.1826172 74.6642912,14.1533203 75.0378263,12.5180664 L73.0871427,12.5180664 C72.7883146,13.1987305 72.0827482,13.5805664 71.0617521,13.5805664 C69.7087247,13.5805664 68.8371427,12.6176758 68.787338,11.0820312 L68.787338,10.9741211 L75.1291349,10.9741211 L75.1291349,10.3183594 C75.1291349,7.47119141 73.5768888,5.75292969 70.9870451,5.75292969 C68.3556974,5.75292969 66.7204435,7.58740234 66.7204435,10.5009766 C66.7204435,13.40625 68.3307951,15.1826172 71.0036466,15.1826172 Z M73.0705412,9.60449219 L68.7956388,9.60449219 C68.8869474,8.24316406 69.7502287,7.35498047 70.9787443,7.35498047 C72.2155607,7.35498047 73.0290372,8.2265625 73.0705412,9.60449219 Z M82.4063966,15 L83.4356935,11.9038086 L87.8434083,11.9038086 L88.8561037,15 L91.1554201,15 L86.8971193,3.02197266 L84.4898927,3.02197266 L80.2398927,15 L82.4063966,15 Z M87.3453615,10.2519531 L83.9337404,10.2519531 L85.5772951,5.27148438 L85.7184083,5.27148438 L87.3453615,10.2519531 Z M95.985213,15.1826172 C98.2845294,15.1826172 99.7122638,13.9042969 99.9363849,12.0283203 L97.9774005,12.0283203 C97.7615802,12.9829102 97.047713,13.4892578 95.9769122,13.4892578 C94.5740802,13.4892578 93.7274005,12.3686523 93.7274005,10.4428711 C93.7274005,8.55029297 94.5657794,7.43798828 95.9769122,7.43798828 C97.1058185,7.43798828 97.7864826,8.07714844 97.9774005,8.95703125 L99.9363849,8.95703125 C99.7205646,7.08105469 98.3094318,5.75292969 95.9769122,5.75292969 C93.2459552,5.75292969 91.6439044,7.50439453 91.6439044,10.4428711 C91.6439044,13.4145508 93.254256,15.1826172 95.985213,15.1826172 Z M105.181217,15.0415039 C105.579654,15.0415039 105.96149,15.0083008 106.260318,14.9501953 L106.260318,13.3730469 C106.011295,13.3979492 105.85358,13.4145508 105.563053,13.4145508 C104.699772,13.4145508 104.317936,13.0078125 104.317936,12.1030273 L104.317936,7.58740234 L106.260318,7.58740234 L106.260318,5.98535156 L104.317936,5.98535156 L104.317936,3.70263672 L102.267643,3.70263672 L102.267643,5.98535156 L100.831608,5.98535156 L100.831608,7.58740234 L102.267643,7.58740234 L102.267643,12.5927734 C102.267643,14.3442383 103.097721,15.0415039 105.181217,15.0415039 Z M108.956811,4.40820312 C109.637475,4.40820312 110.193627,3.86865234 110.193627,3.18798828 C110.193627,2.515625 109.637475,1.96777344 108.956811,1.96777344 C108.284447,1.96777344 107.728295,2.515625 107.728295,3.18798828 C107.728295,3.86865234 108.284447,4.40820312 108.956811,4.40820312 Z M109.986108,15 L109.986108,5.92724609 L107.935815,5.92724609 L107.935815,15 L109.986108,15 Z M116.044416,15.1826172 C118.758772,15.1826172 120.410627,13.40625 120.410627,10.4594727 C120.410627,7.52929688 118.750471,5.75292969 116.044416,5.75292969 C113.346662,5.75292969 111.678205,7.53759766 111.678205,10.4594727 C111.678205,13.40625 113.32176,15.1826172 116.044416,15.1826172 Z M116.044416,13.4975586 C114.608381,13.4975586 113.786604,12.3852539 113.786604,10.4677734 C113.786604,8.55029297 114.608381,7.43798828 116.044416,7.43798828 C117.472151,7.43798828 118.293928,8.55029297 118.293928,10.4677734 C118.293928,12.3852539 117.480451,13.4975586 116.044416,13.4975586 Z M124.136416,15 L124.136416,9.71240234 C124.136416,8.35107422 124.908389,7.49609375 126.136904,7.49609375 C127.390322,7.49609375 127.971377,8.20166016 127.971377,9.61279297 L127.971377,15 L130.029971,15 L130.029971,9.13134766 C130.029971,6.97314453 128.925967,5.75292969 126.900576,5.75292969 C125.547549,5.75292969 124.634463,6.3671875 124.202822,7.37988281 L124.061709,7.37988281 L124.061709,5.92724609 L122.077822,5.92724609 L122.077822,15 L124.136416,15 Z" id="LargeAction"></path>
                <path d="M10.204,18.6894531 C14.9603477,18.6894531 18.8783164,14.7714844 18.8783164,10.0151367 C18.8783164,5.25878906 14.9520469,1.33251953 10.1956992,1.33251953 C5.43935156,1.33251953 1.52968359,5.25878906 1.52968359,10.0151367 C1.52968359,14.7714844 5.44765234,18.6894531 10.204,18.6894531 Z M10.1873984,14.1240234 C9.64784766,14.1240234 9.29921484,13.7338867 9.29921484,13.1860352 L9.29921484,10.9116211 L6.89198828,10.9116211 C6.34413672,10.9116211 5.94569922,10.5629883 5.94569922,10.0234375 C5.94569922,9.47558594 6.33583594,9.12695312 6.89198828,9.12695312 L9.29921484,9.12695312 L9.29921484,6.73632812 C9.29921484,6.18847656 9.64784766,5.79833984 10.1873984,5.79833984 C10.7269492,5.79833984 11.0921836,6.18017578 11.0921836,6.73632812 L11.0921836,9.12695312 L13.5077109,9.12695312 C14.0721641,9.12695312 14.4456992,9.47558594 14.4456992,10.0234375 C14.4456992,10.5629883 14.0638633,10.9116211 13.5077109,10.9116211 L11.0921836,10.9116211 L11.0921836,13.1860352 C11.0921836,13.7421875 10.7269492,14.1240234 10.1873984,14.1240234 Z" id="Icon"></path>
            </g>
        </g>
    </g>
</svg>