<?xml version="1.0" encoding="UTF-8"?>
<svg width="89px" height="29px" viewBox="0 0 89 29" version="1.1" xmlns="http://www.w3.org/2000/svg" xmlns:xlink="http://www.w3.org/1999/xlink">
    <title>NativeSmallActionButton</title>
    <defs>
        <rect id="path-1" x="0" y="0" width="89" height="29" rx="14.5"></rect>
    </defs>
    <g id="Controls" stroke="none" stroke-width="1" fill="none" fill-rule="evenodd">
        <g id="NativeSmallActionButton">
            <mask id="mask-2" fill="white">
                <use xlink:href="#path-1"></use>
            </mask>
            <use id="Rectangle" fill="#007AFF" xlink:href="#path-1"></use>
            <g id="Content" mask="url(#mask-2)" fill="#FFFFFF" fill-rule="nonzero">
                <g transform="translate(9.000000, 7.000000)">
                    <path d="M24.703125,13.2529297 C27.1777344,13.2529297 28.7021484,12.0361328 28.7021484,10.0673828 C28.7021484,8.54296875 27.8476562,7.68847656 25.8652344,7.26464844 L24.6757812,7.01171875 C23.5205078,6.75878906 23.0488281,6.39648438 23.0488281,5.77441406 C23.0488281,5.00195312 23.7324219,4.50292969 24.7646484,4.50292969 C25.7626953,4.50292969 26.4873047,5.02929688 26.5830078,5.8359375 L28.5244141,5.8359375 C28.4628906,4.09277344 26.9248047,2.8828125 24.7509766,2.8828125 C22.4746094,2.8828125 20.9775391,4.09960938 20.9775391,5.93847656 C20.9775391,7.43554688 21.859375,8.35839844 23.6572266,8.74121094 L24.9423828,9.02148438 C26.1523438,9.28808594 26.6445312,9.6640625 26.6445312,10.3134766 C26.6445312,11.0791016 25.8857422,11.6191406 24.8125,11.6191406 C23.6503906,11.6191406 22.84375,11.0927734 22.7480469,10.2724609 L20.7519531,10.2724609 C20.8271484,12.0976562 22.3515625,13.2529297 24.703125,13.2529297 Z M32.486248,13 L32.486248,6.32128906 L32.595623,6.32128906 L35.111248,12.5146484 L36.4852715,12.5146484 L38.9940605,6.32128906 L39.1034355,6.32128906 L39.1034355,13 L41.017498,13 L41.017498,3.13574219 L38.5907402,3.13574219 L35.8563652,9.9375 L35.7333184,9.9375 L33.0057793,3.13574219 L30.5721855,3.13574219 L30.5721855,13 L32.486248,13 Z M44.6990586,13 L45.4578477,10.6074219 L48.923668,10.6074219 L49.6687852,13 L51.9041367,13 L48.479332,3.13574219 L46.0525742,3.13574219 L42.6277695,13 L44.6990586,13 Z M48.486168,9.0625 L45.9021836,9.0625 L47.1394883,5.13867188 L47.2625352,5.13867188 L48.486168,9.0625 Z M59.9606973,13 L59.9606973,11.2636719 L55.5720254,11.2636719 L55.5720254,3.13574219 L53.5075723,3.13574219 L53.5075723,13 L59.9606973,13 Z M68.2086641,13 L68.2086641,11.2636719 L63.8199922,11.2636719 L63.8199922,3.13574219 L61.7555391,3.13574219 L61.7555391,13 L68.2086641,13 Z" id="SMALL"></path>
                    <path d="M7.75683594,3.21484375 L7.75683594,0.0600585938 C7.75683594,-0.206542969 7.52832031,-0.428710938 7.25537109,-0.428710938 C6.98242188,-0.428710938 6.74755859,-0.206542969 6.74755859,0.0600585938 L6.74755859,3.21484375 C6.76660156,2.96728516 6.98242188,2.74511719 7.25537109,2.74511719 C7.52197266,2.74511719 7.73779297,2.96728516 7.75683594,3.21484375 Z M10.8925781,13.2695312 C12.2255859,13.2695312 12.8857422,12.609375 12.8857422,11.3017578 L12.8857422,4.78271484 C12.8857422,3.47509766 12.2255859,2.81494141 10.8925781,2.81494141 L7.77587891,2.81494141 L7.77587891,6.83935547 L7.73779297,7.74707031 L8.13769531,7.328125 L9.09619141,6.29980469 C9.19140625,6.19824219 9.32470703,6.14111328 9.45166016,6.14111328 C9.72460938,6.14111328 9.93408203,6.33789062 9.93408203,6.60449219 C9.93408203,6.74414062 9.87695312,6.85839844 9.77539062,6.95361328 L7.63623047,9.02294922 C7.50292969,9.15625 7.38867188,9.20068359 7.25537109,9.20068359 C7.12207031,9.20068359 7.0078125,9.15625 6.87451172,9.02294922 L4.72900391,6.95361328 C4.62744141,6.85839844 4.5703125,6.74414062 4.5703125,6.60449219 C4.5703125,6.33789062 4.7734375,6.14111328 5.04638672,6.14111328 C5.17333984,6.14111328 5.31933594,6.19824219 5.40820312,6.29980469 L6.37304688,7.328125 L6.77294922,7.74707031 L6.73486328,6.83935547 L6.73486328,2.81494141 L3.61181641,2.81494141 C2.29150391,2.81494141 1.61865234,3.46875 1.61865234,4.78271484 L1.61865234,11.3017578 C1.61865234,12.6157227 2.29150391,13.2695312 3.61181641,13.2695312 L10.8925781,13.2695312 Z" id="Icon"></path>
                </g>
            </g>
        </g>
    </g>
</svg>