<svg clip-rule="evenodd" fill-rule="evenodd" stroke-linejoin="round" stroke-miterlimit="2" viewBox="0 0 70 29" xmlns="http://www.w3.org/2000/svg"><path d="m70 14.5c0 8.003-6.497 14.5-14.5 14.5h-41c-8.003 0-14.5-6.497-14.5-14.5s6.497-14.5 14.5-14.5h41c8.003 0 14.5 6.497 14.5 14.5z" fill="#007aff"/><g fill="#fff" fill-rule="nonzero"><path d="m22.384 20h6.535v-1.702h-4.471v-2.492h4.218v-1.586h-4.218v-2.382h4.471v-1.702h-6.535z"/><path d="m33.58 20.12c.356 0 .679-.052.971-.154.292-.103.546-.25.762-.441.217-.192.39-.422.52-.691h.123v1.166h1.996v-10.404h-1.996v4.081h-.123c-.126-.276-.299-.512-.521-.708-.223-.196-.481-.347-.775-.454s-.613-.161-.957-.161c-.635 0-1.181.155-1.637.465s-.806.754-1.051 1.333-.367 1.271-.367 2.078v.014c0 .799.124 1.489.372 2.069.249.58.602 1.026 1.06 1.338.458.313.999.469 1.623.469zm.68-1.655c-.35 0-.653-.089-.909-.266-.255-.178-.451-.433-.589-.766s-.207-.729-.207-1.189v-.014c0-.46.069-.856.207-1.188.138-.331.335-.587.591-.765.256-.179.559-.269.907-.269.351 0 .655.09.911.269.257.178.455.434.595.765.14.332.21.729.21 1.191v.014c0 .458-.069.853-.208 1.186s-.337.588-.593.766c-.257.177-.561.266-.915.266z"/><path d="m39.643 20h1.996v-7.526h-1.996zm1.001-8.682c.31 0 .575-.108.795-.324.22-.217.33-.478.33-.783 0-.31-.11-.573-.33-.788s-.485-.323-.795-.323c-.305 0-.569.108-.791.323s-.333.478-.333.788c0 .305.111.566.333.783.222.216.486.324.791.324z"/><path d="m46.618 20.027c.194 0 .378-.008.552-.025s.323-.037.446-.06v-1.484c-.096.01-.186.017-.27.023-.084.005-.19.008-.318.008-.337 0-.583-.078-.736-.236-.154-.157-.231-.404-.231-.741v-3.534h1.555v-1.504h-1.555v-1.798h-2.017v1.798h-1.158v1.504h1.158v3.995c0 .729.201 1.254.602 1.574s1.058.48 1.972.48z"/></g></svg>