<?xml version="1.0" encoding="UTF-8"?>
<svg width="24px" height="14px" viewBox="0 0 24 14" version="1.1" xmlns="http://www.w3.org/2000/svg" xmlns:xlink="http://www.w3.org/1999/xlink">
    <title>NativePlayPauseCompactButton</title>
    <g id="Page-1" stroke="none" stroke-width="1" fill="none" fill-rule="evenodd">
        <g id="NativePlayPauseCompactButton" transform="translate(0.116056, 0.250000)" fill="#007AFF" fill-rule="nonzero">
            <path d="M16.2695312,13.5219727 C17.1245117,13.5219727 17.5229492,13.0654297 17.5229492,12.3764648 L17.5229492,1.14550781 C17.5229492,0.456542969 17.1245117,0 16.2695312,0 L14.684082,0 C13.8208008,0 13.4223633,0.46484375 13.4223633,1.14550781 L13.4223633,12.3764648 C13.4223633,13.0571289 13.8208008,13.5219727 14.684082,13.5219727 L16.2695312,13.5219727 Z M22.2958984,13.5219727 C23.1591797,13.5219727 23.5493164,13.0571289 23.5493164,12.3764648 L23.5493164,1.14550781 C23.5493164,0.46484375 23.1591797,0 22.2958984,0 L20.7104492,0 C19.847168,0 19.4487305,0.456542969 19.4487305,1.14550781 L19.4487305,12.3764648 C19.4487305,13.0654297 19.847168,13.5219727 20.7104492,13.5219727 L22.2958984,13.5219727 Z M1.1953125,13.2729492 C1.53564453,13.2729492 1.81787109,13.1650391 2.14990234,12.9658203 L10.6083984,7.99365234 C11.1977539,7.64501953 11.4550781,7.22998047 11.4550781,6.75683594 C11.4550781,6.27539062 11.1977539,5.86865234 10.6083984,5.52001953 L2.14990234,0.539550781 C1.80957031,0.340332031 1.53564453,0.232421875 1.1953125,0.232421875 C0.547851562,0.232421875 0,0.73046875 0,1.66015625 L0,11.8535156 C0,12.7832031 0.547851562,13.2729492 1.1953125,13.2729492 Z"></path>
        </g>
    </g>
</svg>